<?xml version="1.0" encoding="UTF-8" standalone="no"?>
<svg
   xmlns:dc="http://purl.org/dc/elements/1.1/"
   xmlns:cc="http://creativecommons.org/ns#"
   xmlns:rdf="http://www.w3.org/1999/02/22-rdf-syntax-ns#"
   xmlns:svg="http://www.w3.org/2000/svg"
   xmlns="http://www.w3.org/2000/svg"
   viewBox="0 0 954.31 954.32002"
   height="954.32001"
   width="954.31"
   xml:space="preserve"
   version="1.1"
   id="svg3336"><metadata
     id="metadata3342"><rdf:RDF><cc:Work
         rdf:about=""><dc:format>image/svg+xml</dc:format><dc:type
           rdf:resource="http://purl.org/dc/dcmitype/StillImage" /><dc:title></dc:title></cc:Work></rdf:RDF></metadata><defs
     id="defs3340"><clipPath
       id="clipPath3350"
       clipPathUnits="userSpaceOnUse"><path
         id="path3352"
         d="m 169.626,513.59 c -58.957,0 -106.752,50.879 -106.752,113.642 0,62.764 47.795,113.643 106.752,113.643 58.958,0 106.752,-50.879 106.752,-113.643 0,-62.763 -47.794,-113.642 -106.752,-113.642" /></clipPath><clipPath
       id="clipPath3364"
       clipPathUnits="userSpaceOnUse"><path
         id="path3366"
         d="M 573.624,-1.1 0,-1.1 l 0,804.408 573.624,0 0,-804.408 M 0.709,134.777 l 0,-95.943 476.504,0 0,95.943 -93.335,0 c 38.292,27.168 63.524,73.56 63.524,126.223 0,83.711 -63.747,151.572 -142.382,151.572 -78.636,0 -142.382,-67.861 -142.382,-151.572 0,-52.663 25.231,-99.055 63.523,-126.223 l -225.452,0 m 168.917,606.098 c -58.957,0 -106.752,-50.879 -106.752,-113.643 0,-62.763 47.795,-113.642 106.752,-113.642 58.958,0 106.752,50.879 106.752,113.642 0,62.764 -47.794,113.643 -106.752,113.643" /></clipPath><clipPath
       id="clipPath3372"
       clipPathUnits="userSpaceOnUse"><path
         id="path3374"
         d="m 0.03,802.205 572.568,0 0,-802.175 -572.568,0 0,802.175 z" /></clipPath><clipPath
       id="clipPath3386"
       clipPathUnits="userSpaceOnUse"><path
         id="path3388"
         d="m 477.213,38.834 -476.504,0 0,95.943 225.452,0 c 7.174,-5.09 14.798,-9.5 22.809,-13.155 l -44.097,0 0,-7.66 57.149,0 0,2.498 c 13.565,-4.568 28.014,-7.034 42.998,-7.034 13.573,0 26.702,2.021 39.136,5.798 l 0,-1.232 49.369,0 0,7.39 -32.984,0 c 8.202,3.701 16.007,8.195 23.337,13.395 l 93.335,0 0,-95.943 m -272.422,70.498 0,-9.6 121.297,0 0,9.6 -121.297,0" /></clipPath><clipPath
       id="clipPath3400"
       clipPathUnits="userSpaceOnUse"><path
         id="path3402"
         d="m 262.022,113.962 -57.149,0 0,7.66 44.097,0 c 4.248,-1.938 8.603,-3.664 13.052,-5.162 l 0,-2.498" /></clipPath><clipPath
       id="clipPath3414"
       clipPathUnits="userSpaceOnUse"><path
         id="path3416"
         d="m 326.088,99.732 -121.297,0 0,9.6 121.297,0 0,-9.6" /></clipPath><clipPath
       id="clipPath3428"
       clipPathUnits="userSpaceOnUse"><path
         id="path3430"
         d="m 393.525,113.992 -49.369,0 0,1.232 c 5.611,1.703 11.081,3.765 16.385,6.158 l 32.984,0 0,-7.39" /></clipPath><clipPath
       id="clipPath3506"
       clipPathUnits="userSpaceOnUse"><path
         id="path3508"
         d="m 416.104,412.933 -222.344,0 0,-209.064 222.344,0 0,209.064 z" /></clipPath><clipPath
       id="clipPath3514"
       clipPathUnits="userSpaceOnUse"><path
         id="path3516"
         d="m 383.878,134.777 -157.717,0 c -38.292,27.168 -63.523,73.56 -63.523,126.223 0,83.711 63.746,151.572 142.382,151.572 78.635,0 142.382,-67.861 142.382,-151.572 0,-52.663 -25.232,-99.055 -63.524,-126.223" /></clipPath><clipPath
       id="clipPath3526"
       clipPathUnits="userSpaceOnUse"><path
         id="path3528"
         d="m 194.203,378.127 -32.079,0 0,-243.87 32.079,0 0,243.87 z" /></clipPath><clipPath
       id="clipPath3534"
       clipPathUnits="userSpaceOnUse"><path
         id="path3536"
         d="m 383.878,134.777 -157.717,0 c -38.292,27.168 -63.523,73.56 -63.523,126.223 0,83.711 63.746,151.572 142.382,151.572 78.635,0 142.382,-67.861 142.382,-151.572 0,-52.663 -25.232,-99.055 -63.524,-126.223" /></clipPath><clipPath
       id="clipPath3546"
       clipPathUnits="userSpaceOnUse"><path
         id="path3548"
         d="m 447.74,378.127 -32.079,0 0,-243.87 32.079,0 0,243.87 z" /></clipPath><clipPath
       id="clipPath3554"
       clipPathUnits="userSpaceOnUse"><path
         id="path3556"
         d="m 383.878,134.777 -157.717,0 c -38.292,27.168 -63.523,73.56 -63.523,126.223 0,83.711 63.746,151.572 142.382,151.572 78.635,0 142.382,-67.861 142.382,-151.572 0,-52.663 -25.232,-99.055 -63.524,-126.223" /></clipPath><clipPath
       id="clipPath3566"
       clipPathUnits="userSpaceOnUse"><path
         id="path3568"
         d="m 416.104,204.324 -222.344,0 0,-70.067 222.344,0 0,70.067 z" /></clipPath><clipPath
       id="clipPath3574"
       clipPathUnits="userSpaceOnUse"><path
         id="path3576"
         d="m 383.878,134.777 -157.717,0 c -38.292,27.168 -63.523,73.56 -63.523,126.223 0,83.711 63.746,151.572 142.382,151.572 78.635,0 142.382,-67.861 142.382,-151.572 0,-52.663 -25.232,-99.055 -63.524,-126.223" /></clipPath><clipPath
       id="clipPath3586"
       clipPathUnits="userSpaceOnUse"><path
         id="path3588"
         d="m 305.02,109.426 c -14.984,0 -29.433,2.466 -42.998,7.034 l 0,5.162 -13.052,0 c -8.011,3.655 -15.635,8.065 -22.809,13.155 l 157.717,0 c -7.33,-5.2 -15.135,-9.694 -23.337,-13.395 l -16.385,0 0,-6.158 c -12.434,-3.777 -25.563,-5.798 -39.136,-5.798" /></clipPath><clipPath
       id="clipPath3598"
       clipPathUnits="userSpaceOnUse"><path
         id="path3600"
         d="m 248.97,121.622 13.052,0 0,-5.162 -13.052,0 0,5.162 z" /></clipPath><clipPath
       id="clipPath3606"
       clipPathUnits="userSpaceOnUse"><path
         id="path3608"
         d="m 262.022,116.46 c -4.449,1.498 -8.804,3.224 -13.052,5.162 l 13.052,0 0,-5.162" /></clipPath><clipPath
       id="clipPath3618"
       clipPathUnits="userSpaceOnUse"><path
         id="path3620"
         d="m 344.156,121.382 16.385,0 0,-6.158 -16.385,0 0,6.158 z" /></clipPath><clipPath
       id="clipPath3626"
       clipPathUnits="userSpaceOnUse"><path
         id="path3628"
         d="m 344.156,115.224 0,6.158 16.385,0 c -5.304,-2.393 -10.774,-4.455 -16.385,-6.158" /></clipPath><clipPath
       id="clipPath3638"
       clipPathUnits="userSpaceOnUse"><path
         id="path3640"
         d="m 0.03,802.205 572.568,0 0,-802.175 -572.568,0 0,802.175 z" /></clipPath></defs><g
     transform="matrix(1.25,0,0,-1.25,-596.45875,1599.2088)"
     id="g3344"><text
       id="text3438"
       style="font-variant:normal;font-weight:normal;font-size:100px;font-family:SoletoTKHeadline;-inkscape-font-specification:SoletoTKHeadline-Regular;writing-mode:lr-tb;fill:#ffffff;fill-opacity:1;fill-rule:nonzero;stroke:none"
       transform="matrix(1,0,0,-1,42.2362,683.086)"><tspan
         id="tspan3440"
         y="0"
         x="0">T</tspan></text>
<text
       id="text3442"
       style="font-variant:normal;font-weight:normal;font-size:10px;font-family:SoletoTKHeadline;-inkscape-font-specification:SoletoTKHeadline-Regular;writing-mode:lr-tb;fill:#ffffff;fill-opacity:1;fill-rule:nonzero;stroke:none"
       transform="matrix(1,0,0,-1,444.756,771.301)"><tspan
         id="tspan3444"
         y="0"
         x="0 6.5500002 12.41 17.299999 23.23 28.690001 34.619999 40.080002 42.630001 49.540001 52.630001 55.34 57.889999 63.799999">Ausgabe Nr. 2 </tspan></text>
<text
       id="text3446"
       style="font-variant:normal;font-weight:normal;font-size:10px;font-family:SoletoTK;-inkscape-font-specification:SoletoTK-Regular;writing-mode:lr-tb;fill:#ffffff;fill-opacity:1;fill-rule:nonzero;stroke:none"
       transform="matrix(1,0,0,-1,511.106,771.301)"><tspan
         id="tspan3448"
         y="0"
         x="0">|</tspan></text>
<text
       id="text3450"
       style="font-variant:normal;font-weight:normal;font-size:10px;font-family:SoletoTKHeadline;-inkscape-font-specification:SoletoTKHeadline-Regular;writing-mode:lr-tb;fill:#ffffff;fill-opacity:1;fill-rule:nonzero;stroke:none"
       transform="matrix(1,0,0,-1,516.186,771.301)"><tspan
         id="tspan3452"
         y="0"
         x="0 5.5599999 11.12 16.879999">2016</tspan></text>
<text
       id="text3454"
       style="font-variant:normal;font-weight:normal;font-size:18px;font-family:SoletoTKHeadline;-inkscape-font-specification:SoletoTKHeadline-Regular;writing-mode:lr-tb;fill:#ffffff;fill-opacity:1;fill-rule:nonzero;stroke:none"
       transform="matrix(1,0,0,-1,65.7638,645.268)"><tspan
         id="tspan3456"
         y="0"
         x="0 12.114 21.834 30.348 34.650002 48.582001 58.122002 68.508003">Das Maga</tspan></text>
<text
       id="text3458"
       style="font-variant:normal;font-weight:normal;font-size:100px;font-family:SoletoTKHeadline;-inkscape-font-specification:SoletoTKHeadline-Regular;writing-mode:lr-tb;fill:#ffffff;fill-opacity:1;fill-rule:nonzero;stroke:none"
       transform="matrix(1,0,0,-1,100.8369,683.086)"><tspan
         id="tspan3460"
         y="0"
         x="0">K</tspan></text>
<text
       id="text3462"
       style="font-variant:normal;font-weight:normal;font-size:18px;font-family:SoletoTKHeadline;-inkscape-font-specification:SoletoTKHeadline-Regular;writing-mode:lr-tb;fill:#ffffff;fill-opacity:1;fill-rule:nonzero;stroke:none"
       transform="matrix(1,0,0,-1,143.9916,645.268)"><tspan
         id="tspan3464"
         y="0"
         x="0 9 13.248 23.598 27.9 38.321999 47.862 54.936001 59.237999">zin der T</tspan></text>
<text
       id="text3466"
       style="font-variant:normal;font-weight:normal;font-size:100px;font-family:SoletoTKHeadline;-inkscape-font-specification:SoletoTKHeadline-Regular;writing-mode:lr-tb;fill:#ffffff;fill-opacity:1;fill-rule:nonzero;stroke:none"
       transform="matrix(1,0,0,-1,180.9377,683.086)"><tspan
         id="tspan3468"
         y="0"
         x="0 53.169998">ak</tspan></text>
<text
       id="text3470"
       style="font-variant:normal;font-weight:normal;font-size:18px;font-family:SoletoTKHeadline;-inkscape-font-specification:SoletoTKHeadline-Regular;writing-mode:lr-tb;fill:#ffffff;fill-opacity:1;fill-rule:nonzero;stroke:none"
       transform="matrix(1,0,0,-1,212.1573,645.268)"><tspan
         id="tspan3472"
         y="0"
         x="0 9.54 18.108 28.458 38.807999 43.056 51.588001 61.127998 68.202003 72.503998 83.304001">echniker Kr</tspan></text>
<text
       id="text3474"
       style="font-variant:normal;font-weight:normal;font-size:100px;font-family:SoletoTKHeadline;-inkscape-font-specification:SoletoTKHeadline-Regular;writing-mode:lr-tb;fill:#ffffff;fill-opacity:1;fill-rule:nonzero;stroke:none"
       transform="matrix(1,0,0,-1,286.9094,683.086)"><tspan
         id="tspan3476"
         y="0"
         x="0 40.369999 97.540001 150.71001 174.38">tuell</tspan></text>
<text
       id="text3478"
       style="font-variant:normal;font-weight:normal;font-size:18px;font-family:SoletoTKHeadline;-inkscape-font-specification:SoletoTKHeadline-Regular;writing-mode:lr-tb;fill:#ffffff;fill-opacity:1;fill-rule:nonzero;stroke:none"
       transform="matrix(1,0,0,-1,302.031,645.268)"><tspan
         id="tspan3480"
         y="0"
         x="0 9.54 19.889999 28.422001 37.962002 48.312 57.293999 67.014 75.528 84.042">ankenkasse</tspan></text>
<g
       transform="matrix(8,0,0,8,-3340.169,-3611.377)"
       id="g3634"><g
         clip-path="url(#clipPath3638)"
         id="g3636"><path
           id="path3642"
           style="fill:#00aeef;fill-opacity:1;fill-rule:nonzero;stroke:none"
           d="m 477.167,515.911 95.431,0 0,95.432 -95.431,0 0,-95.432 z" /></g></g><path
       id="path3644"
       style="fill:#00aeef;fill-opacity:1;fill-rule:nonzero;stroke:none"
       d="m 477.167,517.415 761.952,0 0,761.952 -761.952,0 0,-761.952 z" /><g
       transform="matrix(8,0,0,8,815.05516,1037.2309)"
       id="g3646"><path
         id="path3648"
         style="fill:#ffffff;fill-opacity:1;fill-rule:nonzero;stroke:none"
         d="m 0,0 0,-15.903 -13.245,0 0,15.903 -9.941,0 0,11.131 33.108,0 0,-11.131" /></g><g
       transform="matrix(8,0,0,8,949.40716,1037.3432)"
       id="g3650"><path
         id="path3652"
         style="fill:#ffffff;fill-opacity:1;fill-rule:nonzero;stroke:none"
         d="m 0,0 17.127,0 -15.936,-15.917 16.759,-15.92 -17.109,0 -15.911,15.92" /></g><g
       transform="matrix(8,0,0,8,685.74308,742.03124)"
       id="g3654"><path
         id="path3656"
         style="fill:#ffffff;fill-opacity:1;fill-rule:nonzero;stroke:none"
         d="m 0,0 -0.177,-1.306 -2.625,0 0,-7.723 -1.585,0 0,7.723 -2.803,0 L -7.025,0" /></g><g
       transform="matrix(8,0,0,8,776.02292,670.71916)"
       id="g3658"><path
         id="path3660"
         style="fill:#ffffff;fill-opacity:1;fill-rule:nonzero;stroke:none"
         d="m 0,0 c -0.279,-0.085 -0.552,-0.146 -0.818,-0.184 -0.266,-0.038 -0.547,-0.057 -0.843,-0.057 -0.575,0 -1.052,0.074 -1.433,0.221 -0.38,0.149 -0.685,0.36 -0.913,0.634 -0.228,0.275 -0.391,0.603 -0.488,0.983 -0.097,0.381 -0.146,0.804 -0.146,1.268 l 0,0.647 c 0,0.465 0.061,0.888 0.184,1.268 0.123,0.38 0.311,0.706 0.565,0.977 0.253,0.27 0.576,0.477 0.969,0.621 0.393,0.143 0.864,0.215 1.414,0.215 0.33,0 0.641,-0.025 0.932,-0.076 0.292,-0.05 0.56,-0.114 0.806,-0.19 L -0.025,5.211 C -0.194,5.262 -0.38,5.304 -0.583,5.338 -0.786,5.372 -1.01,5.389 -1.255,5.389 -1.923,5.389 -2.392,5.245 -2.663,4.958 -2.933,4.67 -3.069,4.179 -3.069,3.487 l 0,-0.533 c 0,-0.727 0.146,-1.24 0.438,-1.541 0.292,-0.3 0.78,-0.45 1.464,-0.45 0.237,0 0.472,0.015 0.704,0.045 0.233,0.029 0.45,0.065 0.653,0.107" /></g><g
       transform="matrix(8,0,0,8,790.32708,669.79876)"
       id="g3662"><path
         id="path3664"
         style="fill:#ffffff;fill-opacity:1;fill-rule:nonzero;stroke:none"
         d="m 0,0 0,9.308 1.547,0.215 0,-3.512 c 0.211,0.237 0.477,0.416 0.799,0.539 0.321,0.122 0.676,0.184 1.065,0.184 0.355,0 0.678,-0.047 0.97,-0.14 C 4.673,6.501 4.924,6.36 5.135,6.169 5.347,5.979 5.511,5.74 5.63,5.453 5.748,5.165 5.807,4.827 5.807,4.439 L 5.807,0 4.26,0 l 0,4.02 C 4.26,4.553 4.163,4.931 3.969,5.155 3.774,5.379 3.449,5.491 2.992,5.491 2.493,5.491 2.128,5.36 1.896,5.098 1.663,4.836 1.547,4.417 1.547,3.843 L 1.547,0" /></g><g
       transform="matrix(8,0,0,8,852.71092,669.79876)"
       id="g3666"><path
         id="path3668"
         style="fill:#ffffff;fill-opacity:1;fill-rule:nonzero;stroke:none"
         d="m 0,0 0,6.493 1.331,0.19 0.115,-0.811 c 0.211,0.279 0.483,0.492 0.817,0.64 0.334,0.148 0.717,0.222 1.148,0.222 0.355,0 0.678,-0.047 0.97,-0.14 C 4.673,6.501 4.924,6.36 5.135,6.169 5.347,5.979 5.511,5.74 5.63,5.453 5.748,5.165 5.807,4.827 5.807,4.439 L 5.807,0 4.26,0 l 0,4.02 C 4.26,4.553 4.163,4.931 3.969,5.155 3.774,5.379 3.449,5.491 2.992,5.491 2.494,5.491 2.128,5.36 1.896,5.098 1.663,4.836 1.547,4.417 1.547,3.843 L 1.547,0" /></g><g
       transform="matrix(8,0,0,8,915.09516,721.53508)"
       id="g3670"><path
         id="path3672"
         style="fill:#ffffff;fill-opacity:1;fill-rule:nonzero;stroke:none"
         d="m 0,0 1.547,0.216 0,-6.683 L 0,-6.467 0,0 Z M 0.774,2.752 C 1.103,2.752 1.342,2.678 1.49,2.53 1.638,2.382 1.712,2.173 1.712,1.902 1.712,1.632 1.638,1.422 1.49,1.275 1.342,1.127 1.103,1.053 0.774,1.053 c -0.33,0 -0.569,0.074 -0.717,0.222 -0.148,0.147 -0.222,0.357 -0.222,0.627 0,0.271 0.074,0.48 0.222,0.628 0.148,0.148 0.387,0.222 0.717,0.222" /></g><g
       transform="matrix(8,0,0,8,955.97508,693.999)"
       id="g3674"><path
         id="path3676"
         style="fill:#ffffff;fill-opacity:1;fill-rule:nonzero;stroke:none"
         d="m 0,0 0,-3.025 -1.484,0 0,9.308 L 0,6.498 0,1.141 l 2.536,2.416 1.75,0 -3.081,-2.936 3.195,-3.646 -1.813,0" /></g><g
       transform="matrix(8,0,0,8,1086.2231,711.70308)"
       id="g3678"><path
         id="path3680"
         style="fill:#ffffff;fill-opacity:1;fill-rule:nonzero;stroke:none"
         d="m 0,0 c -0.102,0.025 -0.224,0.05 -0.368,0.076 -0.144,0.025 -0.292,0.037 -0.444,0.037 -0.558,0 -0.961,-0.145 -1.211,-0.437 -0.249,-0.292 -0.374,-0.738 -0.374,-1.338 l 0,-3.576 -1.546,0 0,6.493 1.331,0.19 0.114,-0.888 c 0.211,0.288 0.473,0.505 0.786,0.654 0.313,0.147 0.689,0.221 1.129,0.221 0.169,0 0.318,-0.01 0.45,-0.031 0.131,-0.022 0.268,-0.057 0.412,-0.108" /></g><g
       transform="matrix(8,0,0,8,699.343,818.39884)"
       id="g3682"><path
         id="path3684"
         style="fill:#ffffff;fill-opacity:1;fill-rule:nonzero;stroke:none"
         d="m 0,0 1.547,0.216 0,-6.683 L 0,-6.467 0,0 Z M 0.774,2.751 C 1.103,2.751 1.342,2.677 1.49,2.529 1.638,2.381 1.712,2.172 1.712,1.902 1.712,1.631 1.638,1.422 1.49,1.274 1.342,1.126 1.103,1.052 0.774,1.052 c -0.33,0 -0.569,0.074 -0.717,0.222 -0.148,0.148 -0.221,0.357 -0.221,0.628 0,0.27 0.073,0.479 0.221,0.627 0.148,0.148 0.387,0.222 0.717,0.222" /></g><g
       transform="matrix(8,0,0,8,740.58292,807.79876)"
       id="g3686"><path
         id="path3688"
         style="fill:#ffffff;fill-opacity:1;fill-rule:nonzero;stroke:none"
         d="m 0,0 c 0.224,0.3 0.594,0.45 1.109,0.45 0.431,0 0.748,-0.1 0.951,-0.298 0.192,-0.188 0.311,-0.458 0.359,-0.809 l -2.755,-1.226 0,0.406 C -0.336,-0.793 -0.225,-0.3 0,0 M 3.163,0.919 C 2.69,1.367 2.018,1.591 1.147,1.591 0.623,1.591 0.173,1.515 -0.203,1.363 -0.579,1.211 -0.89,0.995 -1.135,0.716 -1.38,0.437 -1.56,0.103 -1.674,-0.286 -1.788,-0.674 -1.845,-1.106 -1.845,-1.579 l 0,-0.532 c 0,-0.525 0.052,-0.983 0.158,-1.376 0.106,-0.394 0.283,-0.725 0.533,-0.996 0.249,-0.27 0.575,-0.473 0.976,-0.608 0.402,-0.136 0.898,-0.203 1.49,-0.203 0.186,0 0.376,0.006 0.571,0.019 0.194,0.012 0.384,0.032 0.57,0.057 0.186,0.025 0.357,0.055 0.514,0.089 0.156,0.033 0.293,0.071 0.412,0.114 l 0.203,1.103 C 3.226,-3.98 2.914,-4.026 2.644,-4.052 2.373,-4.077 2.098,-4.09 1.819,-4.09 c -0.625,0 -1.095,0.072 -1.407,0.216 -0.313,0.144 -0.524,0.401 -0.634,0.773 l 3.981,1.763 c 0.076,0.034 0.114,0.093 0.114,0.177 l 0,0.178 c 0,0.82 -0.236,1.454 -0.71,1.902" /></g><g
       transform="matrix(8,0,0,8,697.25508,710.935)"
       id="g3690"><path
         id="path3692"
         style="fill:#ffffff;fill-opacity:1;fill-rule:nonzero;stroke:none"
         d="m 0,0 c 0.224,0.3 0.594,0.45 1.11,0.45 0.431,0 0.748,-0.099 0.951,-0.298 0.192,-0.188 0.311,-0.458 0.359,-0.808 l -2.756,-1.227 0,0.406 C -0.336,-0.792 -0.224,-0.3 0,0 M 3.164,0.919 C 2.691,1.367 2.019,1.591 1.148,1.591 0.623,1.591 0.174,1.515 -0.203,1.364 -0.579,1.211 -0.89,0.996 -1.135,0.717 -1.38,0.438 -1.56,0.104 -1.673,-0.285 -1.788,-0.674 -1.845,-1.105 -1.845,-1.578 l 0,-0.533 c 0,-0.524 0.053,-0.983 0.159,-1.376 0.105,-0.393 0.283,-0.725 0.532,-0.995 0.25,-0.271 0.575,-0.474 0.977,-0.609 0.401,-0.135 0.898,-0.203 1.49,-0.203 0.186,0 0.376,0.007 0.57,0.02 0.195,0.012 0.385,0.031 0.571,0.056 0.186,0.026 0.357,0.055 0.513,0.089 0.157,0.034 0.294,0.072 0.413,0.114 l 0.203,1.103 C 3.227,-3.979 2.915,-4.025 2.644,-4.051 2.373,-4.077 2.099,-4.089 1.82,-4.089 1.194,-4.089 0.725,-4.017 0.412,-3.873 0.1,-3.73 -0.112,-3.472 -0.222,-3.1 l 3.982,1.762 c 0.076,0.034 0.114,0.094 0.114,0.178 l 0,0.177 c 0,0.82 -0.237,1.454 -0.71,1.902" /></g><g
       transform="matrix(8,0,0,8,1011.5112,710.935)"
       id="g3694"><path
         id="path3696"
         style="fill:#ffffff;fill-opacity:1;fill-rule:nonzero;stroke:none"
         d="m 0,0 c 0.224,0.3 0.594,0.45 1.11,0.45 0.431,0 0.748,-0.099 0.951,-0.298 0.192,-0.188 0.311,-0.458 0.359,-0.808 l -2.756,-1.227 0,0.406 C -0.336,-0.792 -0.224,-0.3 0,0 M 3.164,0.919 C 2.691,1.367 2.019,1.591 1.148,1.591 0.623,1.591 0.173,1.515 -0.203,1.364 -0.579,1.211 -0.89,0.996 -1.135,0.717 -1.38,0.438 -1.56,0.104 -1.674,-0.285 -1.788,-0.674 -1.845,-1.105 -1.845,-1.578 l 0,-0.533 c 0,-0.524 0.053,-0.983 0.159,-1.376 0.105,-0.393 0.283,-0.725 0.532,-0.995 0.25,-0.271 0.575,-0.474 0.977,-0.609 0.401,-0.135 0.898,-0.203 1.49,-0.203 0.185,0 0.376,0.007 0.57,0.02 0.195,0.012 0.385,0.031 0.571,0.056 0.185,0.026 0.357,0.055 0.513,0.089 0.157,0.034 0.294,0.072 0.413,0.114 l 0.202,1.103 C 3.227,-3.979 2.915,-4.025 2.644,-4.051 2.373,-4.077 2.099,-4.089 1.82,-4.089 1.194,-4.089 0.725,-4.017 0.412,-3.873 0.1,-3.73 -0.112,-3.472 -0.222,-3.1 l 3.982,1.762 c 0.076,0.034 0.114,0.094 0.114,0.178 l 0,0.177 c 0,0.82 -0.237,1.454 -0.71,1.902" /></g><g
       transform="matrix(8,0,0,8,642.23892,777.21476)"
       id="g3698"><path
         id="path3700"
         style="fill:#ffffff;fill-opacity:1;fill-rule:nonzero;stroke:none"
         d="m 0,0 1.331,0 c 0.397,0 0.746,0.046 1.046,0.139 0.3,0.093 0.549,0.247 0.748,0.463 0.199,0.216 0.349,0.505 0.45,0.869 0.102,0.363 0.152,0.815 0.152,1.356 l 0,0.749 c 0,0.54 -0.048,0.993 -0.145,1.356 C 3.484,5.296 3.336,5.585 3.138,5.801 2.939,6.016 2.692,6.169 2.396,6.257 2.1,6.346 1.749,6.391 1.344,6.391 L 0,6.391 0,0 Z m -1.369,7.709 c 0.068,0 2.84,-0.002 2.84,-0.002 0.76,0 1.39,-0.099 1.889,-0.302 C 3.858,7.202 4.256,6.921 4.552,6.561 4.848,6.202 5.054,5.775 5.173,5.281 5.291,4.786 5.351,4.248 5.351,3.664 l 0,-0.926 C 5.351,2.138 5.287,1.591 5.16,1.097 5.033,0.602 4.822,0.175 4.526,-0.184 4.23,-0.543 3.831,-0.823 3.328,-1.021 2.825,-1.22 2.202,-1.319 1.458,-1.319 l -3.043,0 0,8.802 c 0,0.126 0.122,0.226 0.216,0.226" /></g></g></svg>